<svg width="167" height="190" viewBox="0 0 167 190" xmlns="http://www.w3.org/2000/svg"><title>wayne-county</title><desc>Created with Sketch.</desc><g fill="#EFEFEF" fill-rule="nonzero" opacity=".75"><path opacity=".5" d="M152.152 156.671l2.465-.144 5.057-.107.201 5.395.494.545-1.135.847-.664.04-.573.809.648.629.15.908-1.089.106-.994 1.874.255 1.396-4.411.114z"/><path opacity=".5" d="M125.92 100.274l9.99-.042.039 10.103-10.006.051z"/><path opacity=".5" d="M154.355 149.165l10.188-.421.359 1.882 1.45 2.742.05.81-.87 1.413-.558 3.334.312 1.317-.897 2.727-.3 1.667-1.332 1.543-2.064-.257.686-.915-1.17-.154.983-.738.862-1.159-1.687-.599-.494-.545-.201-5.395-5.057.107z"/><path opacity=".5" d="M95.052 51.455l-.002 7.794-.007 8.244-1.186.591.186.858-1.759-.937-1.308-.396-1.828.313-.952-.281-1.636.584-1.002 1.113-.059 1.515-.93 2.002-1.09-.064-.724.961.016-4.124-.644.001.002-7.794-2.593-.018.004-5.218 5.171.04.007-5.216z"/><path d="M136.027 67.276l.781-1.521.911 1.246.727-1.241.573.071 1.373-.921-.117-.538-1.133-.415.256-.421 1.949-.035.914.376 1.023 2.478 1.212.654-1.139 1.982-1.115.062-1.559-.885-1.199.456-.855-.729-.603.646-1.999-1.265zm-28.012-23.375l1.655-.286 1.564.217 1.752-.403.912.103-1.123 1.194-.411.931-.165 3.49.174 1.158-.576.85.821 1.052 1.666-.23.263.523 1.25.001.459.709 1.449-.217 1.876-1.026.98.085.81 1.299-.091.793 1.111-.197.939-.753.714.177-.015-.795.89-1.01 1.63-.198 1.001.447.798-.241.585-.994 2.009.114.367.781-.723 2.569.15 1.388.675 1.505-.327 2.791-1.885-.089-1.235.901.447.764 1.132.291 1.69-.238.53.826 1.234.355-.85 1.241 1.924 2.191.845-.322.855 1.302-.352.634-2.173.181-1.997-.67-2.095-.101-.132.001-.36.002.01-2.578-2.569-.004-.008-2.577-15.483-.006-.014-2.613-2.578.007-.001-15.324z" opacity=".5"/><path opacity=".5" d="M162.411 133.899l-10.568.427-7.21.217-.1-1.793 1.068-2.261-.921.197.631-1.236.539.304 1.343-1.059.036-.929-1.333-.306 1.623-.009.755-.508.579-1.209 2.299-.358 2.164-.803.39-.877 2.043-.667 1.095.7 1.281.364 1.549 1.232 1.247 3.037.734.896.587 2.089z"/><path d="M46.222 30.441l-1.477.004-.012-2.628-4.422.001 1.799-2.508 4.269-2.465 3.542-.794 3.011-.063.481.281 1.612-.167 1.762 1.024.073 1.174-.62-.135-1.508.642-.854-.324-2.075.248.389 1.372-2.411 1.344-2.305 2.519-1.253.475zm-21.413-20.514l.799-.32.07-.948.859-.742 3.824-2.077 4.475-2.029.278-.534 1.832-1.091.188-.47 2.471-1.217.46.298 2.112-.796.056.628-3.04 2.385-.16.955-1.972 1.59-3.781 1.425-3.104 1.752.044.553 1.846-.023-5.176 2.088-1.499-.867.709-.975-1.293.416z" opacity=".5"/><path d="M129.15 66.993l2.095.101-1.732.271-.364-.373zm-7.747 5.114l1.678.05 3.166 1.199-.778 1.262-.539.236-1.678-.507-1.017-1.566-.833-.674zm-26.354-12.858l12.966-.024 2.578-.007.014 2.613 15.483.006.008 2.577 2.569.004-.01 2.578.36-.002-1.067-.097.312.921-2.023-.004.024.523-1.43-.553.651-.786-1.078-.661-.499.189.122.943-.881-.864-.55.849-.249-1.589-1.396-.129-.923-.758-.636.529-.008 1.894-1.068.876.789 2.635-.977.396-1.505-.845-.375-.872-1.534-.84-.594-1.053-1.267-1.334-2.025-.689-.597-.501-1.244-.046-3.195-1.366-.68.552-.703-.791-.683.477-1.58-.173-1.775 2.049-.931 1.606-1.206.146-2.06-.491-1.136.355.007-8.244z" opacity=".5"/><path d="M94.643 82.986l1.09.717.035 1.067-1.125-1.783zm-3.717 8.969l.415-.586 1.398.622-.151 1.502.48.778-.799.189-1.222-1.367-.121-1.137zm8.765 10.65l-3.61.016-5.365-.113.045-3.101.592-.874 1.06.429 1.26-2.008 1.276.869 1.291-.315.602-.972-.036-.776.81-1.344 1.235-1.086.518-1.556.779-1.209.669.195.935-.895.192.987-1.413.82-.301.637.998 2.002-1.419 1.792.096.906.631-.674-.024 1.913-.513.099-.413 1.093-.124 1.517.226 1.648zm-10.65-6.984l.29-.756 1.166.021-.63 1.183-.826-.447z" opacity=".5"/><path opacity=".5" d="M129.383 77.623l1.384 1.598.507 1.893 1.171.558.402-.249 2.63.354 1.404 1.488 1.455.834 1.14-.232.386.549 2.078 1.299 1.21-.178 1.549.809 1.694 1.798-.706.402.561 1.428-7.517.061-2.669.087-7.554.098-.111-12.583z"/><path opacity=".5" d="M96.082 102.62l3.61-.016.97.183.3-1.426 1.117-2.288-.816.027.513-.628.407-1.671.933-.518-.513 3.96-1.16 1.103-.427 1.691 1.021.37.575-1.656.577-.357.586-1.26 1.264.007.208.958.809.418-.024 8.722-10.001-.019z"/><path opacity=".5" d="M30.423 54.008l6.447-.013 11.635.006-.018 5.19.012 9.684-.647-.471-2.982-.404-1.815-1.206-.759.486-.863-.716-.801.126-.25-.715-1.953.089-.257.848-.991-.108-.392-.679-.979-.369-1.764.177-2.413-1.581-1.202-.705.007-7.049z"/><path d="M110.948 85.291l-.011.906 1.045.032.879 1.811.8-.545 4.798.065-.033 2.567-.01 2.552-2.535-.053-7.571-.031.02-2.574-3.431-.059.353-1.857 1.503-1.498.519.187 1.451-1.366 1.357-.341.867.205zm-6.803-12.237l1.569-.667-.541 1.024-1.028-.357zm-2.25-.575l.129-.83 1.542.991.001.537-1.12-.045-.552-.653zm-1.949 5.876l.49-1.109-.007-1.262.674-.874.121-1.445 1.399 1.005-.151 1.336.298 2.177-1.445 1.043-1.278-.37-.098-.503zm-1.5-4.046l.978-.053-.027.723-.884.54-.066-1.21z" opacity=".5"/><path opacity=".5" d="M130.147 130.022l.019-4.907 2.501-.002.012 2.465 2.807.019-.151 2.854-.743 1.439.822 2.383 1.271.898 2.354.769.784.627.009 3.368-2.458-.003.01-1.234-4.833-.049.02-1.234-2.442-.045z"/><path opacity=".5" d="M106.863 179.575l9.657-.025.028 8.681-7.683.007-1.972-.006z"/><path opacity=".5" d="M87.586 188.23l.065-8.653 9.509.06.057 7.517-.644 1.102-5.607-.041z"/><path opacity=".5" d="M116.305 150.164l9.697.026.086 9.663v.164l-4.943.002-4.844-.017z"/><path opacity=".5" d="M121.034 120.408l4.963-.001 4.175-.036-.006 4.745-.019 4.907-4.118-.073-.003.426-4.948-.048z"/><path opacity=".5" d="M31.621 35.567l.913-2.106 1.391-1.113 1.252-.594.654-.885 1.516-1.211 1.626-.567 1.339-1.274 4.422-.001.012 2.628 1.477-.004-.099 1.53-1.183.605-.177.947-1.082.672-.365 1.734-.9 1.25-.677.174-.143 1.006-2.095.015.005 2.624h-2.624l-.01 12.997-6.447.013.035-7.828 2.585.026.012-2.586-1.417.007z"/><path opacity=".5" d="M121.145 160.019l4.943-.002v-.164l4.247-.024.341 6.552.021 3.334-9.503.074z"/><path opacity=".5" d="M118.753 169.802l2.441-.013 9.503-.074.198.001-.017 9.858-4.782-.052-7.158.086-.153-4.924z"/><path opacity=".5" d="M106.052 101.517l.108-1.119.741-.258 9.187.046-.075 10.088-9.987-.036z"/><path opacity=".5" d="M95.052 51.455l.008-5.579 1.439.274 4.292.195 2.176-.175 5.049-2.269.001 15.324-12.966.024z"/><path opacity=".5" d="M126.022 90.22l2.485.001 7.554-.098.02 5.023-.211.004.04 5.083-9.99.042z"/><path opacity=".5" d="M11.916 43.595l.781-.902 1.199-.687 2.425-.446.902.444 2.394-.705 2.042-.065 3.871-2.086 1.13-1.542 1.135-.919 1.142.173 1.569-.264 1.114-1.029.017 8.06 1.417-.007-.012 2.586-2.585-.026-.035 7.828.013 2.59-7.749.009.001-5.178-7.775.012.024-2.612-2.568-.019.036-5.2z"/><path opacity=".5" d="M101.262 120.281l4.75-.006 5.122.025-.037 10.073-9.791-.056z"/><path opacity=".5" d="M116.015 110.275l7.853.01 2.075.102.054 10.02-4.963.001-5.036-.026-.085-7.527z"/><path opacity=".5" d="M97.16 179.637l9.702-.062.03 8.656-7.599.024-2.72.001.644-1.102z"/><path opacity=".5" d="M126 149.892l9.071-.123.038 7.391.098 2.551-4.872.118-4.247.024-.086-9.663z"/><path opacity=".5" d="M84.719 174.786l1.398-3.213.481-1.709 10.533-.039-.036 4.921.065 4.89-9.509-.06-.013-4.793z"/><path opacity=".5" d="M96.027 110.22l10.001.019-.091 2.518.075 7.517-4.75.006-5.305.02z"/><path opacity=".5" d="M54.086 74.782l3.089-.014.004-5.215h1.64l.012-2.591 5.152.021-.012 2.559.882.018-.036 10.309 1.313.012-.502 1.452-.928 1.583.151.506-1.37 1.786-.933 1.879-2.119 3.27-1.241 1.281-.212 1.065.372.583-1.43-.411-.469-1.051-1.088-.858 1.014-3.66.814-1.215-.219-.892-.729-.594-1.244 1.19-1.678-.045-1.025-.347.728-1.375-.249-.735 1.007-.875.418-1.056-.804-2.009.706.175.345-1.55-.894-.962.878-.773-.634-1.125z"/><path opacity=".5" d="M48.505 54l.015-7.768 2.57-.022.003-2.595-1.102-.006.006-4.445.945.214 2.089-.108 1.063.757.608-.219.827.736.74.048.282 1.136 1.092-.281 1.635 1.892.263 1.322 1.297 1.221.351 1.281.837.355.648 1.362.742.182.421 1.136-.394.403.715.893 1.005.343 2.24.036.824-.436.95.317.011 10.055-2.594.001-.027 5.179-2.583-.007-5.152-.021.023-7.777-10.367.005z"/><path opacity=".5" d="M135.911 100.232l7.491-.09 4.231.031.441.865.121 2.68.431.667-.873 3.453.178 1.533-.24.884-11.742.08z"/><path opacity=".5" d="M87.935 160.085l8.822-.019 4.898.002.049 9.736-4.572.021-10.533.039.554-2.009.444-2.912-.071-1.206.464-2.02z"/><path opacity=".5" d="M104.898 89.961l3.431.059-.02 2.574 7.571.031.164 2.549.046 5.012-9.187-.046-.741.258-.108 1.119-.809-.418-.208-.958-1.264-.007.978-2.078.412-2.112-.099-1.258.355-1.912-.361-.994z"/><path opacity=".5" d="M130.172 120.37h5.832l6.593-.05.022 1.679-.506.562.178 1.044-1.453-.085-.61.461-.016 1.432-.982-.43-.58.455-1.595-.069-.902.855-.669 1.373-2.807-.019-.012-2.465-2.501.002z"/><path opacity=".5" d="M75.208 188.224l2.903-2.217 1.296-1.437.818-1.397.62-1.813 1.385-3.085 2.49-3.488 2.919-.003.013 4.793-.065 8.653-6.163.015z"/><path opacity=".5" d="M48.499 68.874l-.012-9.684 10.367-.005-.023 7.777-.012 2.591h-1.64l-.004 5.215-3.089.014-.687-.957-1.729-.1-.619-1.108-1.342.442-.93-.316-.628-.942 1.293-1.529-.634-.263z"/><path opacity=".5" d="M139.898 147.256l4.856-.049.152 9.695.001.117-4.881.142.06 2.48-4.879.069-.098-2.551-.038-7.391-.062-2.483z"/><path opacity=".5" d="M96.592 145.224l4.712-.036 5.172.002-.003 4.975.059 9.854-4.877.049-4.898-.002.006-4.047-.175-8.302z"/><path opacity=".5" d="M101.655 160.068l4.877-.049 4.866-.025.055 9.811-4.698.044-5.051-.044z"/><path opacity=".5" d="M106.754 169.849l4.698-.044 7.3-.002.032 4.883.153 4.924-2.417-.059-9.657.025z"/><path opacity=".5" d="M111.134 120.299l4.865.082 5.036.026.043 9.92-9.981.044z"/><path opacity=".5" d="M116.09 100.186l9.831.088.023 10.112-2.075-.102-7.853-.01z"/><path opacity=".5" d="M116.52 179.55l2.417.059 7.158-.086.059 10.187-.809.021-8.402.27.002-1.775-.398.006z"/><path opacity=".5" d="M106.472 150.165l9.832-.001-.004 9.838-4.903-.008-4.866.025z"/><path opacity=".5" d="M111.097 130.372l9.981-.044-.031 9.976-4.929-.004-4.941-.001z"/><path opacity=".5" d="M126.095 179.522l4.782.052 2.555-.179 4.846-.123.223 9.968-2.423.096-9.924.373z"/><path opacity=".5" d="M130.335 159.829l4.872-.118 4.879-.069.448 9.889-5.785.197-3.855-.012-.198-.001-.021-3.334z"/><path opacity=".5" d="M87.408 110.065l8.618.155-.07 10.081-4.565-.083-7.171-.334.933-2.046 1.552-2.765.427-2.187-.017-1.797z"/><path opacity=".5" d="M101.307 140.24l9.869.059 4.941.001.008 4.947.212.001-.033 4.917-9.832.001.003-4.975-5.172-.002z"/><path opacity=".5" d="M82.719 140.124l8.725.139.011 4.947 5.137.015-.004 2.493-2.434-.021.02 2.466-7.537.015-.529-1.349-2.029-4.263z"/><path opacity=".5" d="M91.477 130.317l9.829-.001.001 9.924-.003 4.948-4.712.036-5.137-.015-.011-4.947z"/><path opacity=".5" d="M115.88 92.626l2.535.053.01-2.552 7.597.093-.102 10.054-9.831-.088-.046-5.012z"/><path opacity=".5" d="M.925 49.612l1.81-1.285.496.183 2.948-1.288 2.804-.87 2.934-2.757.49.015-.036 5.2 2.568.019-.024 2.612 7.775-.012-.001 5.178 7.749-.009-.007 7.049-2.082-1.228-17.315-4.818-3.955-1.111.034-.671-.807-1.5-.424-1.443-1.056-1.519-1.747-.246-.027-.849-1.615.356z"/><path opacity=".5" d="M118.459 87.559l.059-3.285-.053-11.437.195.595 3.087 1.71 2.315 1.695.643.238.349-.722.77.41.968-.261 2.59 1.119-.988.016.111 12.583-2.485-.001-7.597-.093z"/><path opacity=".5" d="M84.221 119.883l7.171.334.085 10.1-8.122-.109-.669-4.348-1.066-2.505 1.402-1.377z"/><path opacity=".5" d="M144.906 156.903l7.246-.232.403 12.413-9.685.336-2.334.112-.448-9.889-.06-2.48 4.881-.142z"/><path opacity=".5" d="M136.061 90.123l2.669-.087 7.517-.061.591 1.293.783.853 1.147 3.254-1.848-.798-.438-.761-1.172.539-.449.952.244 2.129 1.028 1.436 1.632.655-.133.645-4.231-.031-7.491.09-.04-5.083.211-.004z"/><path opacity=".5" d="M91.392 120.217l4.565.083 5.305-.02.044 10.036-9.829.001z"/><path opacity=".5" d="M96.587 147.717l.175 8.302-.006 4.047-8.822.019-.031-2.581-.322-3.646-.945-3.68 7.537-.015-.02-2.466z"/><path opacity=".5" d="M106.028 110.239l9.987.036-.101 2.581.085 7.527-4.865-.082-5.122-.025-.075-7.517z"/><path opacity=".5" d="M125.943 110.386l10.006-.051.055 10.035h-5.832l-4.175.036z"/><path opacity=".5" d="M130.895 169.716l3.855.012 5.785-.197 2.334-.112.258 9.765-4.848.088-4.846.123-2.555.179z"/><path opacity=".5" d="M116.117 140.299l4.929.004 4.913-.001.042 9.589.001.298-9.697-.026.033-4.917-.212-.001z"/><path opacity=".5" d="M135.949 110.335l11.742-.08-.039 3.035-.248 1.922-.657.228-1.572 1.969-1.416-.268-.833 1.34-.33 1.839-6.593.05z"/><path opacity=".5" d="M121.077 130.328l4.948.048.003-.426 4.118.073-.017 7.349-.05 2.478-4.118.011-.002.442-4.913.001z"/><path opacity=".5" d="M41.595 38.359l-.518 1.604-.139 1.809.421 1.102-.72.754.961.047.347-.916 1.103-1.446-.191-.778.781.304 2.222-2.196 2.061-1.133.245.199-2.092 1.989-.772 1.719.349-.039.811-1.577.631-.403 2.127-.478.775.243-.006 4.445 1.102.006-.003 2.595-2.57.022-.015 7.768-11.635-.006.01-12.997h2.624l-.005-2.624z"/><path opacity=".5" d="M83.355 130.208l8.122.109-.033 9.946-8.725-.139-1.591-4.141.193-1.725 1.398-1.968z"/><path d="M69.176 51.754l.813-.617 2.074-.338 1.018 1.862 1.086.819 1.223-.018.581-1.196.781-.042.97 1.192.991-.094.355.924 1.794-2.517 1.728-1.709.493.155 1.943-.924 4.374-2.857 1.041.531 2.403-.742-.151.289 2.366-.598-.008 5.579-10.337-.033-.007 5.216-5.171-.04-.004 5.218-10.346-.007-.011-10.055zm8.425-1.514l1.152-.465.559.775-.423 1.424.823.354-.333.576-.761-.413-.572.421.059-1.303-.503-1.369z" opacity=".5"/><path opacity=".5" d="M118.465 72.837l.053 11.437-.059 3.285-4.798-.065-.8.545-.879-1.811-1.045-.032.011-.906 2.112-.048 1.612-.735-.127-.848-2.377-.383-1.174-1.375-.537-2.581.927-1.779 1.231-.66 1.549-2.185-.913-.774-1.859-.316.979-.178 3.07.355.78.34 1.232-.484-.215-.622z"/><path opacity=".5" d="M90.717 102.507l5.365.113-.056 7.6-8.618-.155.191-2.213-.695-2.006.549-1.233 1.606-.757 1.348-.288z"/><path opacity=".5" d="M111.398 159.994l4.903.008 4.844.017.049 9.77-2.441.013-7.3.002z"/><path opacity=".5" d="M97.131 169.826l4.572-.021 5.051.044.108 9.727-9.702.062-.065-4.89z"/><path opacity=".5" d="M101.306 130.316l9.791.056.079 9.926-9.869-.059z"/><path opacity=".5" d="M63.983 66.983l2.583.007.027-5.179 2.594-.001 10.346.007 2.593.018-.002 7.794.644-.001-.016 4.124-1.5.317-.1 1.133-.902-.105-.224 1.378-.738.162.272 1.766-1.94-1.417-.159-1.062 1.036-.541.887-1.828 1.307-.324-.423-.445 1.074-1.879-.148-.966-.974-.306-1.051 1.07-.298.787-2.781-.791.183 1.448-.502 1.082-1.424 1.916-1.552.239-.472.87-.42-.978.185-1.481-.608-2.25 1.175-1.337-.614-.857-.912 1.353.476.366-1.208 1.046-.142 1.591.557.452-1.201 1.26-1.635 1.231-1.849 3.231-1.313-.012.036-10.309-.882-.018z"/><path opacity=".5" d="M142.869 169.42l9.685-.336 4.411-.114-.396 1.546-.72 1.23-2.887.985-.744.831-.552 1.361-.166 1.78.313 1.376-.295 1.034-1.19.656-.188.775-1.963-1.606-2.597.023-2.452.222z"/><path opacity=".5" d="M138.279 179.272l4.848-.088 2.452-.222 2.597-.023 1.963 1.606.605.416-1.644 1.364-.065.775-1.379.343-.324 1.19-.728.356-.804 1.362-.654.532.269 1.601-.52.505-6.395.252z"/><path opacity=".5" d="M151.79 144.257l.343-.009-.29-9.922 10.568-.427.433 4.182 1.004 3.16-.008 2.273.298 3.63.407 1.6-10.188.421-.086-3.711-2.452.035z"/><path opacity=".5" d="M151.79 144.257l.028 1.232 2.452-.035.086 3.711.261 7.362-2.465.144-7.246.232-.152-9.695.001-.274 2.253-.068-.056-2.472z"/><path opacity=".5" d="M139.823 136.567l.649.193 2.969-3.617.677.265.413-.658.1 1.793 7.21-.217.29 9.922-.343.009-4.838.136.056 2.472-2.253.068-.001.274-4.856.049-.066-7.322z"/><path opacity=".5" d="M125.959 140.303l.002-.442 4.118-.011.05-2.478 2.442.045-.02 1.234 4.833.049-.01 1.234 2.458.003.066 7.322-4.888.029.062 2.483-9.071.123z"/></g></svg>