<svg width="166" height="190" viewBox="0 0 166 190" xmlns="http://www.w3.org/2000/svg" xmlns:xlink="http://www.w3.org/1999/xlink"><title>michigan-map</title><desc>Created with Sketch.</desc><defs><path id="a" d="M.727 0h17.383v11.17h-17.383z"/></defs><g opacity=".25" fill="none"><path d="M165.322 154.18c.126-1.355-1.118-2.473-1.527-3.692-.451-1.344-.674-2.971-.824-4.374-.167-1.568.026-3.267-.205-4.809-.219-1.468-.927-2.813-1.116-4.307-.407-3.237-.322-6.026-1.91-8.877-.876-1.572-.896-3.06-2.639-3.98-1.344-.71-2.904-1.461-4.325-.492-.759.517-.572.881-1.624 1.327-.768.327-1.437.385-2.231.581-1.888.466-1.785 1.893-4.106 1.905 2.807.644.207 2.567-.585 1.989l-.632 1.235.921-.196c-.382.808-.751 2.327-1.481 2.919-.133.107-.542-.335-.728-.205l-.35.428c-.61.388-1.124 1.369-1.589 1.935-1.199 1.461-.904 1.041-2.413.373-1.087-.48-2.484-.523-3.336-1.462-.644-.708-1.095-2.009-.943-2.916.081-.473.483-.91.589-1.395.162-.735-.046-1.552.121-2.285.181-.796.677-2.064 1.516-2.447.624-.284 2.717-.461 3.227-.022.019-1.802.307-1.912 2.078-1.808-.389-.803.147-1.472.32-2.197.188-.788-.022-1.628.23-2.449.154-.5.418-1.595.918-1.817 1.288-.572.873.551 2.035-.507 1.513-1.377 1.783-2.035 1.868-4.131.064-1.579.012-3.123.092-4.666.046-.912.628-1.796.683-2.707.047-.755-.18-.857-.247-1.528-.089-.887-.06-1.807-.174-2.677-.168-1.3-.455-1.115-1.308-1.822-1.123-.93-2.358-2.355-1.731-4.043.823-2.214 2.411-.281 3.791.314-.521-1.479-1.059-2.679-1.807-3.973-.436-.753-1.938-2.94-.569-3.257-.812-.863-1.534-1.915-2.697-2.323-1.199-.421-1.842-.047-3.015-.894-.224-.162-1.004-.983-1.204-1.06-.353-.137-.891.279-1.292.145-1.265-.423-1.647-1.662-2.707-2.235-.904-.488-2.314.078-3.032-.105-1.544-.392-1.058-1.213-1.66-2.381-.556-1.082-1.438-1.626-2.46-2.126-.527-.258-1.115-.514-1.658-.629-.789-.167-.825.513-1.613-.183-.312 1.657-2.811-.887-3.511-1.324-1.088-.68-3.251-2.46-4.306-2.011.765 1.377-1.446.815-2.043.737-1.2-.157-2.612-.538-3.803-.148.532.091 1.392.058 1.859.316 1.081.596.743.651.424 1.465-.618 1.575-2.294 1.728-2.865 3.258-.453 1.214-.193 2.66.599 3.74.718.98.889.772 1.949 1.082.486.143 1.753.054 1.315 1.04-.512 1.152-3.307.661-4.158.68-.659.014-1.282-.015-1.898.34-.519.298-1.425.924-1.732 1.125-1.228.8-1.906 1.712-1.986 3.308-.041.805.279 1.558.34 2.316.064.796-.095 1.429-.148 2.267-.101 1.561-.104 2.841-.725 4.33-.706 1.692-1.748 2.855-2.331 4.532-2.365-.111.041-2.319.446-3.049.578-1.041.477-2.858.634-4.074-1.469.373-.874 1.953-1.852 2.817.252-.052.559-.019.817-.027-.415.848-.752 2.257-1.268 3.001-.281.405-.045 1.2-.993.553-.283-.192-.312-1.124-.329-1.5-.037-.833.052-1.652.377-2.423.176-.416.553-.308.65-.6.162-.484.016-1.244.022-1.771l-.631.674c-.392-.956.247-1.066.614-1.803.708-1.421.542-.378.211-1.897-.204-.936-.701-.834-.052-1.722.551-.754 1.792-.383 1.074-1.722-.909 1.159-1.691.467-2.384 1.91-.624 1.3-.878 1.604-1.795 2.712-1.413 1.705-.922 4.497-3.901 2.467-.272.434-.818 1.785-1.26 2.008-.901.455-.913-1.171-1.653.498-.317.715.063 2.015-.04 2.8-.183 1.378-.353 1.086-1.45 1.552-2.2.933-2.313 1.343-1.852 3.521.349 1.646-.19 3.465-.292 5.144-.18 2.978-2.198 6.797-3.954 9.236-.326.453-1.333 1.056-1.45 1.541-.158.66.638 1.642.856 2.358.417 1.366.873 3.34.728 4.752-.195 1.9-1.876 2.974-2.083 4.758-.2 1.726.939 3.388 1.494 5.003.511 1.485.823 3.052 1.394 4.513.682 1.741 1.716 3.334 2.351 5.098 2.233 6.201 1.917 13.724.176 19.981-.479 1.719-1.041 3.507-1.92 5.071-.949 1.686-2.281 3.021-3.08 4.802-.721 1.607-1.16 3.471-2.191 4.909-1.109 1.549-2.748 2.586-4.24 3.726 13.906.049 27.833.205 41.737.001l-.002 1.775c6.783-.217 13.565-.445 20.347-.711l5.198-.205c.495-.02 1.964.193 2.38-.094.994-.686.058-1.091.294-2.024.052-.205 1.073-1.452 1.26-1.667l.722-.575c.105-.167.278-.775.406-.892.436-.393 1.136-.783 1.519-1.12.45-.397 1.066-1.245 1.676-1.751-1.59-.614.245-1.294.587-1.745.621-.819.258-1.332.217-2.298-.065-1.558.217-3.392 1.645-4.266 1.83-1.121 3.23-.58 3.632-3.138.19-1.213-.335-4.386 1.969-3.921.066-1.509-1.278-1.266.107-2.366 1.167-.927 1.788-.753 3.153-.268-.567.763-1.03 1.382-1.844 1.897.378-.011.793.104 1.17.154l-.686.915c1.599.198 2.422.466 3.297-1.173.455-.852.791-2.667 1.012-3.645.542-2.408-.043-4.585 1.399-6.927" fill="#EFEFEF"/><path d="M137.547 67.895c.537.824.86.377 1.454.501.183.038.483-.2.681-.182.378.035.758.517 1.122.637 1.659.544 1.841-.503 2.61-1.842-.608-.328-.996-.526-1.372-1.042-.374-.511-.367-1.627-.842-2.037-.652-.566-2.734-.821-3.139.027 1.198.255 1.53.666.563 1.414-.996.771-1.247.368-1.986 1.63l-.911-1.246c-.607 1.181-.829 1.073-.19 1.895.535.688 1.557 1.195 2.01.245" fill="#EFEFEF"/><g transform="translate(23 0)"><mask id="b"><use xlink:href="#a"/></mask><path d="M1.311 10.486c1.355.784 1.426.896 2.841.326l3.834-1.547c-2.821.034-1.703-.651.121-1.666 1.4-.779 2.947-1.127 4.364-1.849.635-.324 1.174-.616 1.705-1.156.608-.62.492-1.009.936-1.581.766-.985 3.203-1.612 2.984-3.013-1.828.69-3.245.537-4.937 1.663-1.164.776-2.194 1.937-3.5 2.645l-5.291 2.571c-.713.387-1.81.744-2.342 1.409-.497.622-.317 1.532-1.299 1.639l1.293-.416-.709.975z" fill="#EFEFEF" mask="url(#b)"/></g><path d="M120.322 72.107c1.875 1.214 2.876 4.439 4.844 1.249-1.724-.653-3.015-1.194-4.844-1.249" fill="#EFEFEF"/><path d="M88.787 96.067c.243-.368.422-.793.63-1.183-1.195-.296-2.052.868-.63 1.183" fill="#EFEFEF"/><path d="M90.26 91.369c-1.058 1.014.393 3.647 1.728 2.902-.768-.759-.033-1.145-.364-1.938-.242-.579-.62-.633-1.364-.964" fill="#EFEFEF"/><path d="M94.687 84.769c.243-.896-.3-1.499-1.125-1.783l1.125 1.783z" fill="#EFEFEF"/><path d="M98.314 74.979l.027-.723c-.215-.046-.767-.012-.978.053-.043.322-.026.899.067 1.21.271-.166.653-.322.884-.54" fill="#EFEFEF"/><path d="M98.962 78.858c.855.335 1.074.381 1.787.002 1.105-.585.736-.733.788-1.764.09-1.794.05-2.391-1.396-3.43-.137 1.626-1.555 3.594-1.179 5.192" fill="#EFEFEF"/><path fill="#EFEFEF" d="M104.092 73.411l.541-1.023-1.57.666z"/><path d="M102.484 72.64l-1.542-.991c-.477 1.08.546 1.759 1.542 1.528v-.537" fill="#EFEFEF"/><path d="M76.964 52.912c.725-.884 1.253.534 1.667-.585-1.745-.248.499-2.203-1.139-2.48-1.483-.252-.439 2.203-.528 3.065" fill="#EFEFEF"/><path d="M75.193 72.149l-.183-1.448c.554.157 2.284.995 2.782.791.429-.177.514-1.536 1.239-1.746.849-.247 1.248.331 1.232 1.161-.018.928-1.652 1.508-.651 2.324-1.384.343-2.004 1.29-2.712 2.423-.34.542-.705.574-.252 1.411.255.473 1.398 1.021 1.832 1.338-.068-.442-.333-1.153-.244-1.583.073-.353.544-.098.614-.325.225-.729.07-1.771 1.222-1.293-.277-1.404.413-.822 1.072-1.339.427-.335 1.127-.778 1.535-1.055.301-.205.602.122.876-.101.298-.242.691-1.327.792-1.705.144-.54-.034-1.225.18-1.722.707-1.636 2.417-1.374 3.729-1.391 1.163-.014 1.589-.347 2.741.053.688.239 1.322.657 1.964.999-.685-1.292 1.559-1.751 2.48-1.721.724.023 1.375.492 2.112.361 1.12-.201 1.039-.698 1.693-1.62 1.097-1.552 1.478-2.037 3.239-1.979.243.009.498-.36.67-.334.136.02.611.463.699.461.434-.005.765-.183 1.373-.128 1.062.095 3.033.991 4.083 1.323 1.393.439 2.796 1.215 3.734 2.393.451.567.607.892 1.134 1.349l.994.544.453.917c.495.437 1.308.93 1.915.603.895-.482.019-1.068-.051-2-.103-1.362.27-.575.818-1.779.304-.666-.402-1.612.326-2.088.434-.285 1.203.245 1.699.535.363.212.71-.026.964.252.199.22.174 1.115.223 1.425.096-.285.385-.597.549-.849.275.269.673.543.882.864-.608-1.445.736-1.05 1.454-.471l-.65.786 1.429.552-.024-.522 2.022.003c-.16-.272-.144-.654-.311-.921.411-.019.794.077 1.199.096.193.009.285.331.543.344l1.372-.214c1.093.051 3.061 1.323 4.188.473.59-.444.58-.916-.041-1.49-.614-.568-.657.07-1.228-.231-.296-.156-1.583-1.52-1.65-1.879-.103-.549.246-.856.659-1.459-.72-.074-1.02-.572-1.499-.768-.683-.28-.832-.172-1.779-.2-1.204-.036-2.08-.56-1.136-1.48.879-.857 1.995.012 2.553-.798.849-1.228-.098-2.736-.399-3.86-.381-1.426.643-2.404.501-3.701-.107-.981-1.176-1.68-2.304-1.151-.464.217-.372.925-.983 1.115-.613.19-.974-.268-1.569-.306-1.129-.073-2.676.607-2.336 1.983-1.016-.427-1.633.794-2.763.773.17-.604-.112-1.771-.718-2.092-.973-.513-1.904.575-2.718.865-.381.137-.955.303-1.361.259-.453-.048-.32-.552-.685-.675-.826-.279-1.41-.222-2.1-.443-.962-.309-1.639.328-1.751-1.123.005.062.327-1.116.34-1.209.029-.208-.064-.698-.07-.942-.059-2.302.123-3.594 1.682-5.252-.982-.245-1.708.265-2.664.3-.967.036-1.653-.232-2.637-.031-1.912.391-3.517 1.739-5.386 2.259-3.455.962-7.056-.46-10.517.414l.151-.289c-.663.205-1.597.723-2.27.701-.41-.014-.856-.494-1.238-.448-1.321.16-3.095 2.125-4.278 2.794-1.322.748-2.282.735-3.333 1.645-1.089.941-1.83 2.21-2.659 3.371-.101-1.395-.768-.506-1.446-.954-.614-.406-.557-1.27-1.448-1.038-.535.14-.486.987-.974 1.209-.725.331-1.569-.257-2.033-.739-1.506-1.567-.616-2.138-3.177-1.589-.331.071-.619.501-.936.576-.247.059-.658-.242-.934-.219-.788.066-1.144.428-2.075.358-.608-.047-1.36.042-1.887-.358-.899-.681-.154-.968-.354-1.385-.539-1.127-1.274-1.618-1.995-2.684-.124-.183-.52-.254-.675-.463-.221-.296-.166-.824-.364-1.145-.427-.69-.976-1.138-1.361-1.818-.558-.989-1.296-3.271-2.858-2.271.058-2.246-4.111-2.192-5.732-2.377-1.299-.149-2.231-.664-3.566.013-.916.465-1.125 1.868-1.95 2.055.75-1.67 1.517-2.427 2.864-3.708-1.888-.652-3.847 3.998-5.309 2.825.533.999-1.244 3.43-2.219 3.092 1.123-.61.226-4.317 1.028-5.772.377-.685 1.252-1.045 1.667-2.017.203-.474.079-1.201.346-1.644.167-.275.909-.686 1.128-.917l.132-.702c.183-.198.649-.186.794-.406l.454-1.19c.353-.547.327-.356.877-.858l.909-.701c.858-.746 1.442-1.647 2.377-2.292 1.478-1.02 1.98-.536 1.452-2.398.891-.107 1.933.082 2.707-.009.77-.09 1.515-.687 2.35-.423.959-3.907-9.664-1.827-11.327-.966-1.062.55-2.521 1.185-3.422 1.976-.843.74-1.331 1.964-2.104 2.799-.921.995-1.663 1.004-2.773 1.64-1.103.632-1.891 1.703-2.899 2.405-.979.682-1.596 1.099-2.16 2.137-.575 1.056-.824 1.911-2.026 2.366-1.127.428-1.925-.092-2.921.491-.907.531-1.324 1.617-2.143 2.242-2.023 1.543-4.694 2.173-7.153 2.406-1.104.105-1.881-.256-3.081.035-1.351.328-1.959.8-2.934 1.765-.868.859-1.88 2.161-2.934 2.757-1.033.584-2.444.746-3.569 1.204-1.186.482-2.688.7-3.584 1.413-1.638 1.305-.289 1.627 1.223 1.294-.345 1.395 1.017.657 1.774 1.095.78.451 1 1.714 1.33 2.454.294.658.552 1.859.939 2.343.48.6 1.471.753 2.45 1.028 3.906 1.097 7.817 2.179 11.727 3.267 3.743 1.041 6.964 1.812 10.266 3.846.723.446 1.598 1.369 2.403 1.569.95.236 1.732-.218 2.72.212.884.385.509.868 1.577.615-.241.057.649-.63.697-.651.36-.161 1.19-.035 1.479.027l.185.529c.095.039.521-.063.626-.001.102.061.939.618 1.003.628.347.051.591-.461.961-.341.593.193 1.032.843 1.613 1.072.879.346 2.179-.005 2.998.442.889.484.671 1.699 1.644 1.875-.666.788-1.859 1.57-.664 2.471.638.481 1.049-.021 1.6.094.385.082.497-.119.768-.047.2.053.299.754.474.849.452.247 1.213-.055 1.687.181.337.168.595.715.869 1.006.706.752 1.917 1.35.372 2.187.995.928.83 1.249.549 2.512l-.705-.174c.572 1.429.936 1.875.229 3.201-.149.281-.633.385-.771.67-.099.204.182.434.106.613-.184.428-.4 1.067-.664 1.566.619.281 1.427.482 2.112.376.715-.109.953-.784 1.551-.902 1.771-.35.846 1.509.418 2.429-.276.592-1.226 3.085-1.014 3.66.371 1.007 2.061 2.053 2.986 2.319-1.273-1.4 4.58-8.036 5.466-9.813.247-.494.53-1.523.841-2.213.392-.87.652-1.673 1.127-2.513 1.118-1.977 2.489-2.965 4.034-4.585-1.561-.781.059-2.453.792-3.089-.798-.502-.005-1.064.436-1.718.959.742.27.816.026 1.526-.374 1.093-.464.333-.348 1.554.099 1.037.021 2.99.604 3.824.259-1.254 1.429-.806 2.204-1.353.732-.516 1.43-1.912 1.745-2.754" fill="#EFEFEF"/></g></svg>