<?xml version="1.0" encoding="UTF-8"?>
<svg width="261px" height="261px" viewBox="0 0 261 261" version="1.1" xmlns="http://www.w3.org/2000/svg" xmlns:xlink="http://www.w3.org/1999/xlink">
    <!-- Generator: Sketch 52.2 (67145) - http://www.bohemiancoding.com/sketch -->
    <title>Group 15</title>
    <desc>Created with Sketch.</desc>
    <defs>
        <circle id="path-1" cx="115.076118" cy="115.076118" r="115"></circle>
        <linearGradient x1="0%" y1="0%" x2="100%" y2="100%" id="linearGradient-3">
            <stop stop-color="#FFFFFF" stop-opacity="0.5" offset="0%"></stop>
            <stop stop-color="#000000" stop-opacity="0.5" offset="100%"></stop>
        </linearGradient>
        <circle id="path-4" cx="115.076118" cy="115.076118" r="115"></circle>
        <filter x="-10.7%" y="-10.2%" width="121.3%" height="121.3%" filterUnits="objectBoundingBox" id="filter-5">
            <feOffset dx="0" dy="1" in="SourceAlpha" result="shadowOffsetOuter1"></feOffset>
            <feGaussianBlur stdDeviation="8" in="shadowOffsetOuter1" result="shadowBlurOuter1"></feGaussianBlur>
            <feComposite in="shadowBlurOuter1" in2="SourceAlpha" operator="out" result="shadowBlurOuter1"></feComposite>
            <feColorMatrix values="0 0 0 0 0.141176471   0 0 0 0 0.160784314   0 0 0 0 0.184313725  0 0 0 0.5 0" type="matrix" in="shadowBlurOuter1"></feColorMatrix>
        </filter>
    </defs>
    <g id="pages" stroke="none" stroke-width="1" fill="none" fill-rule="evenodd">
        <g id="AuthorityHealth-Home_v2.1-mustard" transform="translate(-913.000000, -223.000000)">
            <g id="Group-15" transform="translate(928.000000, 237.000000)">
                <mask id="mask-2" fill="white">
                    <use xlink:href="#path-1"></use>
                </mask>
                <use id="Mask" fill="#FFFFFF" fill-rule="nonzero" xlink:href="#path-1"></use>
                <path d="M134.617138,-61.5883195 L159.249189,-63.024982 L209.788642,-64.0958937 L211.798059,-10.176722 L216.736333,-4.73311434 L205.39165,3.73081163 L198.755381,4.13386836 L193.031135,12.2219996 L199.504278,18.5050909 L201.002073,27.5748092 L190.117109,28.637698 C184.280693,38.7073148 180.968737,44.9517693 180.181242,47.3710616 C179.393747,49.7903539 180.241509,54.4398481 182.724527,61.3195442 L138.643388,62.4621733 L134.617138,-61.5883195 Z" id="05000US26099" fill-opacity="0.75" fill="#D8D8D8" opacity="0.5" mask="url(#mask-2)"></path>
                <polygon id="05000US26125" fill-opacity="0.75" fill="#D8D8D8" opacity="0.5" mask="url(#mask-2)" points="60.2113644 -59.2724658 132.617138 -61.5883195 136.643388 62.4621733 39.8576677 65.8174645 16.5306258 66.9357523 12.052071 -31.8980175 11.4514702 -56.6856632 60.226194 -58.1073882"></polygon>
                <polygon id="05000US26161" fill-opacity="0.75" fill="#D8D8D8" opacity="0.5" mask="url(#mask-2)" points="-79.8027905 70.7849793 -41.2753558 70.9028038 16.5306258 68.9357523 39.8576677 67.8174645 42.438027 165.40306 -6.01044451 166.283184 -54.4366716 167.514805 -79.9733315 169.305883"></polygon>
                <path d="M41.8576677,67.8174645 L138.643388,64.4621733 L182.724527,63.3195442 C181.807684,69.3342235 180.487845,74.4847786 178.765011,78.7712096 C176.180759,85.200856 174.5,88.5 171.57263,91.0655941 C168.645259,93.6311882 147.922081,98.3052808 142.721542,100.905473 C137.521004,103.505666 131.757864,114.106414 129.767842,122.810521 C127.77782,131.514628 127.928965,137.705697 128.106921,140.602849 C128.284877,143.5 131.197592,149.160967 131.235977,154.357126 C131.261567,157.821232 130.277867,161.266427 128.284877,164.692711 C122.199953,167.149414 118.235493,169.335907 116.391496,171.25219 C114.5475,173.168473 113.922183,175.751682 114.515545,179.001816 L94.8959163,162.956181 L68.9440262,163.183423 L44.438027,165.40306 L41.8576677,67.8174645 Z" id="wayne" fill="#C99C20" mask="url(#mask-2)"></path>
                <path d="M-4.01044451,168.283184 L44.438027,167.40306 L68.9440262,165.183423 L94.8959163,164.956181 L114.515545,181.001816 L120.566043,185.159683 L104.134789,198.787768 C105.04493,202.595923 104.8299,205.176201 103.489699,206.528603 C101.479399,208.557207 91.5,208.557207 89.7055383,209.952778 C88.5092305,210.883158 87.4291375,214.848077 86.4652594,221.847534 L79.1913154,225.402248 L71.1610591,239.016098 L64.6285976,244.33441 L67.3127645,260.339278 L62.1149716,265.387199 L-1.78599678,267.905866 L-4.01044451,168.283184 Z" id="05000US26115" fill-opacity="0.75" fill="#D8D8D8" opacity="0.5" mask="url(#mask-2)"></path>
                <g id="glass" fill-rule="nonzero">
                    <use fill="black" fill-opacity="1" filter="url(#filter-5)" xlink:href="#path-4"></use>
                    <use fill-opacity="0.15" fill="#EDEFF0" xlink:href="#path-4"></use>
                    <circle stroke="#CBD0D3" stroke-width="4" stroke-linejoin="square" fill-opacity="0.2" fill="url(#linearGradient-3)" fill-rule="evenodd" cx="115.076118" cy="115.076118" r="113"></circle>
                </g>
            </g>
        </g>
    </g>
</svg>