<svg width="145" height="38" viewBox="0 0 145 38" xmlns="http://www.w3.org/2000/svg"><title>Group 3</title><desc>Created with Sketch.</desc><g fill="none"><g><path d="M34 6c-6.486-4.962-14.898-6.205-22-2-5.858 3.36-9.012 10.512-8 18h-4c-.381-7.72 3.264-15.275 10-19 8.263-5.03 18.369-3.349 25 3h-1z" id="Combined-Shape" fill="#E3C05D"/><text font-family="AvantGardeLT-Bold, ITC Avant Garde Gothic LT" font-size="18" font-weight="bold" letter-spacing="-.5" fill="#EDEFF0" transform="translate(-73 -30) translate(73 30)"><tspan x="8" y="22">Authorit</tspan><tspan x="76.738" y="22">y</tspan></text><path d="M144.652 14.331c-.192.737-1.686 5.192-1.647 6.454l1.38-.458c-.119.408-.117.749-.261.829-.533.299-1.094.634-1.681.732-1.218.201-1.813-.387-1.607-1.598.192-1.122.537-2.219.828-3.323.238-.904.535-1.795.736-2.706.318-1.443-.277-1.992-1.672-1.61-1.408.385-2.348 1.146-2.688 2.684-.467 2.119-1.11 4.199-1.693 6.35h-2.024c.248-.995.455-1.891.694-2.778.8-2.958 1.621-5.911 2.413-8.871.244-.912.896-1.625-.556-2.614v-.439h3.374c-.595 2.396-1.051 4.226-1.367 5.491 2.087-.802 3.775-1.224 5.025-.443 1.25.781.938 1.563.746 2.3zm-52.322.309l-1.594 5.897c.032.38.401.57 1.107.57l-.546.623h-4.313c.35-.56.611-.87.783-.93.695-.242.916-.741 1.087-1.384.97-3.666 1.97-7.323 3.055-11.336l-1.126-.518.195-.487h4.536c-.221.49-.386.748-.493.774-.934.225-1.142.943-1.334 1.728-.306 1.25-.655 2.49-1.046 3.961 2.087.082 3.987.023 6.078.038.468-1.706.93-3.835 1.386-5.498-.092-.121-.44-.293-1.043-.518l.187-.487h4.538c-.258.539-.463.831-.616.875-.646.189-.882.624-1.041 1.223-.918 3.468-2.87 11.136-2.901 11.362.201.38.666.57 1.395.57l-.494.623h-4.738c.286-.564.502-.868.65-.913.775-.237.998-.791 1.166-1.494.362-1.512.793-3.007 1.243-4.683h-6.122zm30.014 5.696c.137.193.232.381.283.563-1.372 1.362-2.437 1.396-3.595.192-1.016.293-1.973.728-2.962.822-1.908.181-3.161-.971-3.383-2.88-.412-3.564 2.83-7.458 6.354-7.52.892-.016 1.789.319 2.66.726l1.487-.609c-.568 3.112-1.639 5.923-2.163 8.707.286.354.725.354 1.318 0zm-16.883.09c.902.707 1.946.691 2.948.233.702-.321 1.435-.78 1.903-1.285l.565.505c-1.501 1.853-4.075 2.564-6.132 1.72-1.827-.748-2.765-2.427-2.447-4.378.559-3.434 3.525-5.914 6.868-5.736 1.095.058 2.063.358 2.482 1.514.346.955-.061 2.134-1.028 2.893-.915.718-1.967 1.159-3.134 1.265-.924.083-1.853.125-2.918.194-.228 1.284-.062 2.327.892 3.074zm23.672-13.443c-.093.702-.177 1.194-.252 1.477-.917 3.461-1.846 6.918-2.774 10.376-.172.642-.638 1.985.037 1.985s.777-.156 1.267-.254c0 .238.091.492 0 .597-.599.688-1.759.955-2.568.647-.608-.232-.932-.699-.905-1.317.029-.667.123-1.345.291-1.992.755-2.913 1.554-5.815 2.321-8.725.216-.822.799-1.703-.677-2.356v-.439h3.26zm3.734 13.585c.065.121.013.569 0 .597-.379.807-1.716 1.006-2.766.656-.792-.263-1.161-.902-.922-1.871.483-1.966 1.039-3.914 1.559-5.872.062-.233.147-.608.256-1.125h-1.306l.413-.765c.768-.126 1.212-.345 1.331-.656.287-.75.443-1.375.6-2.156l2.03-.411c-.143.647-.351 1.613-.624 2.899h1.814l-.252 1.09h-1.902c-.788 2.577-1.344 4.595-1.667 6.053-.125.562-.569 1.427-.339 1.726.153.2.745.145 1.774-.164zm-14.934-7.931c-1.792 1.017-3.408 4.413-3.089 6.445.234 1.496 1.323 2.12 2.714 1.558.923-.373 1.527-1.003 1.772-2.003.369-1.508.809-2.999 1.192-4.503.112-.44.129-.903.192-1.367-1.056-.848-1.93-.612-2.78-.129zm-8.754 2.417c.766-.709.913-1.758.441-2.373-.457-.596-1.308-.688-2.257-.14-1.459.841-2.303 2.134-2.694 3.908 1.752.082 3.268-.245 4.511-1.395z" fill="#EDEFF0"/></g><text font-family="AvantGardeLT-Bold, ITC Avant Garde Gothic LT" font-size="11" font-weight="bold" letter-spacing="6" fill="#E3C05D" transform="translate(-73 -30) translate(73 30)"><tspan x="8" y="37">DATA PORTA</tspan><tspan x="137.883" y="37">L</tspan></text></g></svg>