<svg width="145" height="38" viewBox="0 0 145 38" xmlns="http://www.w3.org/2000/svg"><title>authority-health-logo</title><desc>Created with Sketch.</desc><g fill="none"><path d="M34 6c-6.486-4.962-14.898-6.205-22-2-5.858 3.36-9.012 10.512-8 18h-4c-.381-7.72 3.264-15.275 10-19 8.263-5.03 18.369-3.349 25 3h-1z" id="Combined-Shape" fill="#E3C05D"/><path d="M17.144 20.074h-4.626l-.702 1.926h-3.654l5.346-13.32h2.682l5.292 13.32h-3.69l-.648-1.926zm-2.322-7.254l-1.368 4.554h2.79l-1.368-4.554h-.054zm16.294-.81v9.99h-2.826v-1.062h-.036c-.612 1.278-1.836 1.386-2.592 1.386-.612 0-2.052-.144-2.934-1.26-.792-.99-.9-1.71-.9-3.078v-5.976h2.988v5.526c0 .684 0 1.998 1.602 1.998.864 0 1.71-.45 1.71-2.034v-5.49h2.988zm5.242-3.33v3.33h1.44v2.268h-1.44v7.722h-2.988v-7.722h-1.476v-2.268h1.476v-3.33h2.988zm2.236 13.32v-13.32h2.988v4.248h.036c.504-.9 1.512-1.26 2.574-1.26.954 0 2.088.342 2.718 1.098.846.99.936 1.872.936 3.654v5.58h-2.988v-5.436c0-.486 0-2.088-1.602-2.088-1.674 0-1.674 1.494-1.674 1.98v5.544h-2.988zm10.408-5.004c0-2.448 1.746-5.31 5.382-5.31 3.636 0 5.382 2.862 5.382 5.31 0 2.448-1.746 5.31-5.382 5.31-3.636 0-5.382-2.862-5.382-5.31zm2.988 0c0 1.458 1.098 2.52 2.394 2.52s2.394-1.062 2.394-2.52-1.098-2.52-2.394-2.52-2.394 1.062-2.394 2.52zm8.95 5.004v-9.99h2.808v1.062h.036c.252-.486.774-1.404 2.502-1.404v3.006c-1.386.036-2.358.324-2.358 1.836v5.49h-2.988zm9.4-9.99v9.99h-2.988v-9.99h2.988zm0-3.33v2.268h-2.988v-2.268h2.988zm6.682 3.33h2.92l1.998 5.796h.036l1.908-5.796h3.168l-5.004 13.32h-3.168l1.584-3.834-3.442-8.806v1.588h-1.44v7.722h-2.988v-7.722h-1.476v-2.268h1.476v-3.33h2.988v3.33h1.44z" fill="#EDEFF0"/><path d="M144.652 14.331c-.192.737-1.686 5.192-1.647 6.454l1.38-.458c-.119.408-.117.749-.261.829-.533.299-1.094.634-1.681.732-1.218.201-1.813-.387-1.607-1.598.192-1.122.537-2.219.828-3.323.238-.904.535-1.795.736-2.706.318-1.443-.277-1.992-1.672-1.61-1.408.385-2.348 1.146-2.688 2.684-.467 2.119-1.11 4.199-1.693 6.35h-2.024c.248-.995.455-1.891.694-2.778.8-2.958 1.621-5.911 2.413-8.871.244-.912.896-1.625-.556-2.614v-.439h3.374c-.595 2.396-1.051 4.226-1.367 5.491 2.087-.802 3.775-1.224 5.025-.443 1.25.781.938 1.563.746 2.3zm-52.322.309l-1.594 5.897c.032.38.401.57 1.107.57l-.546.623h-4.313c.35-.56.611-.87.783-.93.695-.242.916-.741 1.087-1.384.97-3.666 1.97-7.323 3.055-11.336l-1.126-.518.195-.487h4.536c-.221.49-.386.748-.493.774-.934.225-1.142.943-1.334 1.728-.306 1.25-.655 2.49-1.046 3.961 2.087.082 3.987.023 6.078.038.468-1.706.93-3.835 1.386-5.498-.092-.121-.44-.293-1.043-.518l.187-.487h4.538c-.258.539-.463.831-.616.875-.646.189-.882.624-1.041 1.223-.918 3.468-2.87 11.136-2.901 11.362.201.38.666.57 1.395.57l-.494.623h-4.738c.286-.564.502-.868.65-.913.775-.237.998-.791 1.166-1.494.362-1.512.793-3.007 1.243-4.683h-6.122zm30.014 5.696c.137.193.232.381.283.563-1.372 1.362-2.437 1.396-3.595.192-1.016.293-1.973.728-2.962.822-1.908.181-3.161-.971-3.383-2.88-.412-3.564 2.83-7.458 6.354-7.52.892-.016 1.789.319 2.66.726l1.487-.609c-.568 3.112-1.639 5.923-2.163 8.707.286.354.725.354 1.318 0zm-16.883.09c.902.707 1.946.691 2.948.233.702-.321 1.435-.78 1.903-1.285l.565.505c-1.501 1.853-4.075 2.564-6.132 1.72-1.827-.748-2.765-2.427-2.447-4.378.559-3.434 3.525-5.914 6.868-5.736 1.095.058 2.063.358 2.482 1.514.346.955-.061 2.134-1.028 2.893-.915.718-1.967 1.159-3.134 1.265-.924.083-1.853.125-2.918.194-.228 1.284-.062 2.327.892 3.074zm23.672-13.443c-.093.702-.177 1.194-.252 1.477-.917 3.461-1.846 6.918-2.774 10.376-.172.642-.638 1.985.037 1.985s.777-.156 1.267-.254c0 .238.091.492 0 .597-.599.688-1.759.955-2.568.647-.608-.232-.932-.699-.905-1.317.029-.667.123-1.345.291-1.992.755-2.913 1.554-5.815 2.321-8.725.216-.822.799-1.703-.677-2.356v-.439h3.26zm3.734 13.585c.065.121.013.569 0 .597-.379.807-1.716 1.006-2.766.656-.792-.263-1.161-.902-.922-1.871.483-1.966 1.039-3.914 1.559-5.872.062-.233.147-.608.256-1.125h-1.306l.413-.765c.768-.126 1.212-.345 1.331-.656.287-.75.443-1.375.6-2.156l2.03-.411c-.143.647-.351 1.613-.624 2.899h1.814l-.252 1.09h-1.902c-.788 2.577-1.344 4.595-1.667 6.053-.125.562-.569 1.427-.339 1.726.153.2.745.145 1.774-.164zm-14.934-7.931c-1.792 1.017-3.408 4.413-3.089 6.445.234 1.496 1.323 2.12 2.714 1.558.923-.373 1.527-1.003 1.772-2.003.369-1.508.809-2.999 1.192-4.503.112-.44.129-.903.192-1.367-1.056-.848-1.93-.612-2.78-.129zm-8.754 2.417c.766-.709.913-1.758.441-2.373-.457-.596-1.308-.688-2.257-.14-1.459.841-2.303 2.134-2.694 3.908 1.752.082 3.268-.245 4.511-1.395z" fill="#EDEFF0"/><path d="M8.627 37v-8.14h2.695c.913 0 2.541 0 3.597 1.518.561.77.748 1.639.748 2.53 0 2.222-1.1 4.092-4.191 4.092h-2.849zm2.079-6.314v4.488h.891c1.551 0 1.991-1.078 1.991-2.233 0-.462-.099-1.045-.396-1.507-.242-.363-.66-.748-1.584-.748h-.902zm16.494 5.137h-2.827l-.429 1.177h-2.233l3.267-8.14h1.639l3.234 8.14h-2.255l-.396-1.177zm-1.419-4.433l-.836 2.783h1.705l-.836-2.783h-.033zm11.61 5.61v-6.314h-1.606v-1.826h5.28v1.826h-1.595v6.314h-2.079zm15.086-1.177h-2.827l-.429 1.177h-2.233l3.267-8.14h1.639l3.234 8.14h-2.255l-.396-1.177zm-1.419-4.433l-.836 2.783h1.705l-.836-2.783h-.033zm20.305 5.61v-8.14h2.662c1.507 0 2.068.231 2.508.594.638.528.957 1.331.957 2.156 0 .825-.341 1.694-.858 2.134-.561.473-1.111.704-2.376.704h-.902v2.552h-1.991zm1.991-6.314v1.936h.847c.396 0 1.298 0 1.298-.979 0-.957-.924-.957-1.375-.957h-.77zm10.972.605c.429-1.056 1.694-2.585 3.971-2.585 2.508 0 4.301 1.958 4.301 4.224s-1.782 4.224-4.312 4.224c-2.563 0-4.279-2.035-4.279-4.125 0-.539.077-1.144.319-1.738zm1.76 1.617c0 1.254.847 2.42 2.244 2.42 1.474 0 2.189-1.342 2.189-2.387 0-1.056-.715-2.409-2.211-2.409-1.441 0-2.222 1.232-2.222 2.376zm13.634 4.092v-8.14h2.574c1.43 0 1.98.176 2.508.583.671.528 1.001 1.386 1.001 2.222 0 .935-.484 2.31-2.024 2.563l2.211 2.772h-2.376l-1.881-2.629h-.022v2.629h-1.991zm1.991-6.314v2.266h.737c1.221 0 1.364-.77 1.364-1.166 0-.737-.539-1.1-1.342-1.1h-.759zm12.336 6.314v-6.314h-1.606v-1.826h5.28v1.826h-1.595v6.314h-2.079zm15.086-1.177h-2.827l-.429 1.177h-2.233l3.267-8.14h1.639l3.234 8.14h-2.255l-.396-1.177zm-1.419-4.433l-.836 2.783h1.705l-.836-2.783h-.033zm10.961 5.61v-8.14h2.079v6.314h2.409v1.826h-4.488z" fill="#E3C05D"/></g></svg>