<svg width="26" height="30" viewBox="0 0 26 30" xmlns="http://www.w3.org/2000/svg"><title>demographics</title><desc>Created with Sketch.</desc><path d="M2.25 29.953v-11.25h-2.25v-8.227c0-.844.293-1.559.879-2.145.586-.586 1.301-.879 2.145-.879h4.5c.797 0 1.488.293 2.074.879.586.586.879 1.301.879 2.145v8.227h-2.25v11.25h-5.977zm18.773 0h-4.5v-9h-4.5l3.797-11.391c.188-.656.551-1.172 1.09-1.547s1.113-.563 1.723-.563h.211c.656 0 1.242.187 1.758.563.516.375.867.891 1.055 1.547l3.867 11.391h-4.5v9zm-15.785-23.977c-.82 0-1.523-.293-2.109-.879-.586-.586-.879-1.289-.879-2.109 0-.82.293-1.523.879-2.109.586-.586 1.289-.879 2.109-.879.82 0 1.523.293 2.109.879.586.586.879 1.289.879 2.109 0 .82-.293 1.523-.879 2.109-.586.586-1.289.879-2.109.879zm13.5 0c-.82 0-1.523-.293-2.109-.879-.586-.586-.879-1.289-.879-2.109 0-.82.293-1.523.879-2.109.586-.586 1.289-.879 2.109-.879.82 0 1.523.293 2.109.879.586.586.879 1.289.879 2.109 0 .82-.293 1.523-.879 2.109-.586.586-1.289.879-2.109.879z" fill="#fff"/></svg>