<svg width="28" height="28" viewBox="0 0 28 28" xmlns="http://www.w3.org/2000/svg"><title>economy</title><desc>Created with Sketch.</desc><path d="M24.865 0c.875 0 1.616.304 2.224.911.608.608.911 1.349.911 2.224v21.729c0 .875-.304 1.616-.911 2.224-.608.608-1.349.911-2.224.911h-21.729c-.875 0-1.616-.304-2.224-.911-.608-.608-.911-1.349-.911-2.224v-21.729c0-.875.304-1.616.911-2.224.608-.608 1.349-.911 2.224-.911h21.729zm-15.531 21.802v-10.938h-3.135v10.938h3.135zm6.198 0v-15.604h-3.063v15.604h3.063zm6.271 0v-6.271h-3.135v6.271h3.135z" fill="#fff"/></svg>