<svg width="30" height="31" viewBox="0 0 30 31" xmlns="http://www.w3.org/2000/svg"><title>environment</title><desc>Created with Sketch.</desc><path d="M29.998 11.199c0 2.651-.872 4.953-2.616 6.907-1.744 1.953-3.918 3.093-6.523 3.418v5.79h4.465v2.93h-23.859v-7.395h-1.465v-6c0-.372.151-.709.453-1.012.302-.302.639-.453 1.012-.453h4.465c.419 0 .779.151 1.081.453.302.302.453.639.453 1.012v6h-1.535v4.465h11.93v-5.86c-2.465-.419-4.523-1.593-6.174-3.523-1.651-1.93-2.477-4.174-2.477-6.732 0-2.884 1.012-5.349 3.035-7.395 2.023-2.046 4.476-3.07 7.36-3.07 2.884 0 5.337 1.023 7.36 3.07 2.023 2.046 3.035 4.511 3.035 7.395zm-26.266 2.721c-.628 0-1.163-.221-1.605-.663-.442-.442-.663-.977-.663-1.605s.221-1.151.663-1.57c.442-.419.977-.628 1.605-.628s1.151.209 1.57.628c.419.419.628.942.628 1.57 0 .628-.209 1.163-.628 1.605-.419.442-.942.663-1.57.663z" fill="#fff"/></svg>