<svg width="32" height="20" viewBox="0 0 32 20" xmlns="http://www.w3.org/2000/svg"><title>poverty</title><desc>Created with Sketch.</desc><path d="M21.834 8.591c-1.228 0-2.263-.425-3.104-1.275-.842-.85-1.262-1.868-1.262-3.054 0-1.186.421-2.192 1.262-3.02.842-.828 1.876-1.242 3.104-1.242 1.228 0 2.263.414 3.104 1.242.842.828 1.262 1.834 1.262 3.02s-.421 2.204-1.262 3.054c-.842.85-1.876 1.275-3.104 1.275zm-11.633 0c-1.205 0-2.24-.425-3.104-1.275-.864-.85-1.296-1.868-1.296-3.054 0-1.186.432-2.192 1.296-3.02.864-.828 1.899-1.242 3.104-1.242s2.229.414 3.07 1.242c.842.828 1.262 1.834 1.262 3.02s-.421 2.204-1.262 3.054c-.842.85-1.865 1.275-3.07 1.275zm0 2.819c1.251 0 2.627.179 4.128.537 1.501.358 2.888.94 4.162 1.745 1.274.805 1.91 1.723 1.91 2.752v3.557h-20.401v-3.557c0-1.029.625-1.946 1.876-2.752 1.251-.805 2.638-1.387 4.162-1.745 1.524-.358 2.911-.537 4.162-.537zm11.633 0c1.274 0 2.661.179 4.162.537 1.501.358 2.877.94 4.128 1.745 1.251.805 1.876 1.723 1.876 2.752v3.557h-8.733v-3.557c0-1.924-.955-3.579-2.866-4.966.591-.045 1.069-.067 1.433-.067z" fill="#fff"/></svg>