<svg viewBox="0 0 215 38" xmlns="http://www.w3.org/2000/svg"><path d="M50.37 8.889c-9.608-7.351-22.071-9.193-32.593-2.963-8.679 4.978-13.351 15.574-11.852 26.667h-5.926c-.564-11.437 4.835-22.629 14.815-28.148 12.241-7.453 27.214-4.962 37.037 4.444h-1.481zm-24.972 21.184h-6.853l-1.04 2.853h-5.413l7.92-19.733h3.973l7.84 19.733h-5.467l-.96-2.853zm-3.44-10.747l-2.027 6.747h4.133l-2.027-6.747h-.08zm24.139-1.2v14.8h-4.187v-1.573h-.053c-.907 1.893-2.72 2.053-3.84 2.053-.907 0-3.04-.213-4.347-1.867-1.173-1.467-1.333-2.533-1.333-4.56v-8.853h4.427v8.187c0 1.013 0 2.96 2.373 2.96 1.28 0 2.533-.667 2.533-3.013v-8.133h4.427zm7.766-4.933v4.933h2.133v3.36h-2.133v11.44h-4.427v-11.44h-2.187v-3.36h2.187v-4.933h4.427zm3.313 19.733v-19.733h4.427v6.293h.053c.747-1.333 2.24-1.867 3.813-1.867 1.413 0 3.093.507 4.027 1.627 1.253 1.467 1.387 2.773 1.387 5.413v8.267h-4.427v-8.053c0-.72 0-3.093-2.373-3.093-2.48 0-2.48 2.213-2.48 2.933v8.213h-4.427zm15.419-7.413c0-3.627 2.587-7.867 7.973-7.867 5.387 0 7.973 4.24 7.973 7.867s-2.587 7.867-7.973 7.867c-5.387 0-7.973-4.24-7.973-7.867zm4.427 0c0 2.16 1.627 3.733 3.547 3.733 1.92 0 3.547-1.573 3.547-3.733s-1.627-3.733-3.547-3.733c-1.92 0-3.547 1.573-3.547 3.733zm13.259 7.413v-14.8h4.16v1.573h.053c.373-.72 1.147-2.08 3.707-2.08v4.453c-2.053.053-3.493.48-3.493 2.72v8.133h-4.427zm13.926-14.8v14.8h-4.427v-14.8h4.427zm0-4.933v3.36h-4.427v-3.36h4.427zm7.766 0v4.933h2.133v3.36h-2.133v11.44h-4.427v-11.44h-2.187v-3.36h2.187v-4.933h4.427zm12.299 4.933h4.693l-7.413 19.733h-4.693l2.347-5.68-5.493-14.053h4.72l2.96 8.587h.053l2.827-8.587zm90.027 3.106c-.284 1.093-2.497 7.692-2.44 9.562l2.044-.679c-.176.604-.174 1.109-.386 1.229-.79.443-1.62.939-2.491 1.084-1.804.298-2.686-.574-2.38-2.367.284-1.663.796-3.288 1.226-4.924.353-1.34.793-2.659 1.09-4.009.471-2.138-.41-2.95-2.477-2.385-2.086.57-3.479 1.698-3.981 3.977-.693 3.139-1.645 6.221-2.508 9.407h-2.999c.367-1.474.674-2.802 1.029-4.116 1.185-4.382 2.401-8.756 3.575-13.142.362-1.351 1.327-2.407-.824-3.873v-.65h4.998c-.882 3.55-1.557 6.261-2.025 8.135 3.092-1.188 5.592-1.813 7.444-.656 1.852 1.157 1.389 2.315 1.105 3.407zm-77.514.457l-2.362 8.736c.047.563.594.845 1.64.845l-.808.924h-6.39c.518-.83.904-1.289 1.16-1.378 1.03-.359 1.357-1.097 1.61-2.05 1.437-5.431 2.919-10.849 4.526-16.794l-1.668-.767c.064-.134.16-.374.289-.721h6.72c-.328.726-.571 1.108-.731 1.147-1.383.333-1.692 1.398-1.976 2.561-.453 1.852-.97 3.688-1.55 5.869 3.093.122 5.906.034 9.005.057.694-2.527 1.377-5.681 2.054-8.145-.136-.179-.651-.434-1.545-.767l.277-.721h6.724c-.382.798-.687 1.231-.912 1.297-.956.281-1.307.925-1.542 1.813-1.361 5.137-4.252 16.497-4.298 16.833.298.563.987.845 2.067.845l-.731.924h-7.02c.423-.835.744-1.286.963-1.352 1.149-.35 1.478-1.172 1.727-2.214.537-2.24 1.175-4.455 1.841-6.938h-9.069zm44.465 8.439c.203.286.343.564.42.835-2.032 2.017-3.61 2.068-5.325.284-1.505.434-2.923 1.078-4.389 1.217-2.827.268-4.683-1.438-5.011-4.267-.611-5.28 4.193-11.049 9.413-11.141 1.321-.023 2.651.472 3.941 1.075l2.203-.902c-.842 4.61-2.428 8.775-3.204 12.899.423.525 1.074.525 1.953 0zm-25.012.134c1.336 1.047 2.883 1.024 4.368.346 1.04-.475 2.126-1.156 2.82-1.903l.837.748c-2.224 2.745-6.037 3.798-9.084 2.549-2.706-1.109-4.096-3.596-3.625-6.486.828-5.087 5.222-8.761 10.175-8.497 1.623.086 3.057.531 3.676 2.243.512 1.415-.091 3.162-1.522 4.286-1.356 1.064-2.914 1.717-4.643 1.874-1.369.124-2.744.185-4.324.287-.338 1.903-.091 3.448 1.321 4.554zm35.07-19.916c-.138 1.04-.263 1.769-.374 2.188-1.358 5.127-2.735 10.25-4.11 15.372-.256.951-.945 2.941.055 2.941s1.151-.231 1.878-.376c0 .353.135.728 0 .884-.888 1.019-2.606 1.415-3.804.958-.9-.344-1.381-1.036-1.341-1.95.043-.989.183-1.993.431-2.951 1.119-4.316 2.302-8.615 3.438-12.926.32-1.217 1.184-2.522-1.003-3.49v-.65h4.83zm5.532 20.125c.097.179.019.843 0 .884-.561 1.196-2.542 1.49-4.098.972-1.173-.39-1.72-1.336-1.366-2.772.716-2.913 1.539-5.799 2.31-8.699.092-.345.218-.901.379-1.667h-1.935l.612-1.134c1.138-.187 1.795-.511 1.972-.972.425-1.111.657-2.037.888-3.194l3.008-.609c-.212.958-.52 2.39-.924 4.294h2.688l-.373 1.615h-2.817c-1.167 3.818-1.99 6.807-2.469 8.967-.185.833-.842 2.113-.502 2.557.227.296 1.103.215 2.628-.243zm-22.124-11.749c-2.654 1.506-5.049 6.537-4.576 9.548.347 2.216 1.959 3.141 4.021 2.308 1.368-.552 2.262-1.486 2.625-2.967.547-2.234 1.199-4.443 1.765-6.672.165-.651.192-1.338.284-2.025-1.564-1.257-2.859-.906-4.119-.192zm-12.969 3.581c1.135-1.05 1.352-2.604.653-3.515-.678-.883-1.938-1.019-3.344-.208-2.161 1.245-3.412 3.162-3.991 5.79 2.596.121 4.842-.363 6.682-2.067z" fill="#B1E2F7" opacity=".85"/></svg>
