<svg width="194" height="49" viewBox="0 0 194 49" xmlns="http://www.w3.org/2000/svg"><title>datawheel-logo-pacific</title><desc>Created with Sketch.</desc><g fill="#B1E2F7"><g><path d="M2.451 24.432c0 5.413 1.962 10.366 5.216 14.198l-1.739 1.733c-3.694-4.277-5.928-9.844-5.928-15.931s2.234-11.654 5.928-15.932l1.739 1.733c-3.253 3.831-5.216 8.786-5.216 14.198z"/><path d="M24.508 2.443c5.429 0 10.399 1.957 14.242 5.199l1.739-1.733c-4.291-3.683-9.875-5.909-15.981-5.909s-11.689 2.226-15.981 5.909l1.739 1.733c3.843-3.242 8.812-5.199 14.241-5.199"/><path d="M46.564 24.432c0 5.413-1.962 10.366-5.216 14.198l1.739 1.733c3.694-4.277 5.928-9.844 5.928-15.931s-2.234-11.654-5.928-15.932l-1.739 1.733c3.253 3.831 5.216 8.786 5.216 14.198"/><path d="M24.508 46.42c-5.429 0-10.399-1.956-14.241-5.199l-1.739 1.732c4.291 3.684 9.875 5.911 15.981 5.911s11.689-2.227 15.981-5.911l-1.739-1.732c-3.843 3.243-8.813 5.199-14.242 5.199"/><path d="M35.241 9.562l-1.231 2.125c3.9 2.895 6.426 7.526 6.426 12.746 0 5.219-2.526 9.851-6.426 12.745l1.231 2.125c4.63-3.327 7.646-8.746 7.646-14.87 0-6.124-3.016-11.543-7.646-14.87"/><path d="M24.508 40.313c-8.176 0-14.909-6.142-15.821-14.049h-2.468c.922 9.259 8.758 16.491 18.289 16.491 2.693 0 5.247-.582 7.552-1.619l-1.231-2.127c-1.938.837-4.075 1.303-6.321 1.303"/><path d="M24.508 8.551c2.246 0 4.382.466 6.321 1.302l1.231-2.126c-2.305-1.037-4.859-1.62-7.552-1.62-9.53 0-17.366 7.232-18.289 16.491h2.468c.912-7.907 7.645-14.048 15.821-14.048"/><path d="M14.768 25.54c-.542-4.74 2.414-9.072 6.822-10.437l-.282-2.464c-5.758 1.545-9.672 7.093-8.975 13.178.696 6.084 5.763 10.611 11.721 10.823l-.282-2.464c-4.604-.34-8.462-3.897-9.005-8.637"/><path d="M25.242 14.688c4.604.34 8.462 3.897 9.005 8.637.542 4.739-2.413 9.071-6.822 10.437l.282 2.463c5.758-1.544 9.672-7.093 8.976-13.177-.696-6.084-5.763-10.612-11.721-10.824l.282 2.464z"/></g><g><path d="M191.332 34.748h2.387v-20.725h-2.387z"/><path d="M186.201 26.568c-.245-2.346-2.161-4.064-4.704-4.064-3.008 0-4.459 2.127-4.704 4.064h9.408zm2.161 5.426c-1.914 2.127-3.939 3.081-6.427 3.081-5.061 0-7.769-3.654-7.769-7.445 0-4.035 2.899-7.417 7.358-7.417 4.403 0 7.467 3.354 7.467 8.372h-12.199c.382 2.427 2.351 4.2 5.115 4.2 1.75 0 3.309-.818 4.568-2.291l1.886 1.5z"/><path d="M168.971 26.568c-.247-2.346-2.161-4.064-4.705-4.064-3.01 0-4.459 2.127-4.705 4.064h9.41zm2.161 5.426c-1.914 2.127-3.94 3.081-6.428 3.081-5.061 0-7.769-3.654-7.769-7.445 0-4.035 2.899-7.417 7.358-7.417 4.404 0 7.467 3.354 7.467 8.372h-12.199c.383 2.427 2.352 4.2 5.116 4.2 1.75 0 3.309-.818 4.567-2.291l1.888 1.5z"/><path d="M151.979 26.485c0-2.127-.875-3.982-3.31-3.982-2.297 0-3.692 1.555-3.692 4.254v7.991h-2.462v-20.725h2.462v8.181h.054c.739-1.282 2.325-1.991 3.912-1.991 2.762 0 5.498 1.5 5.498 5.345v9.19h-2.462v-8.263z"/><path d="M137.485 20.541h2.626l-5.252 14.207h-2.024l-3.829-11.098h-.055l-3.83 11.098h-2.024l-5.252-14.207h2.626l3.582 10.281h.056l3.556-10.281h2.626l3.556 10.281h.055z"/><path d="M103.61 27.481c0 2.752 1.62 5.354 4.621 5.354 3.091 0 4.712-2.483 4.712-5.325 0-2.812-1.771-5.086-4.741-5.086-2.792 0-4.592 2.424-4.592 5.057zm11.614 7.267h-2.4v-2.031h-.061c-1.231 1.555-2.88 2.332-4.862 2.332-4.141 0-6.752-3.5-6.752-7.389 0-4.009 2.551-7.45 6.782-7.45 1.922 0 3.661.897 4.832 2.393h.061v-2.064h2.4v14.208z"/><path d="M96.643 34.748h-2.387v-12.006h-2.507v-2.201h2.507v-6.517h2.387v6.517h2.507v2.201h-2.507z"/><path d="M77.425 27.481c0 2.752 1.621 5.354 4.621 5.354 3.092 0 4.712-2.483 4.712-5.325 0-2.812-1.771-5.086-4.741-5.086-2.792 0-4.593 2.424-4.593 5.057zm11.615 7.267h-2.401v-2.031h-.061c-1.231 1.555-2.881 2.332-4.862 2.332-4.142 0-6.752-3.5-6.752-7.389 0-4.009 2.551-7.45 6.782-7.45 1.922 0 3.661.897 4.832 2.393h.061v-2.064h2.401v14.208z"/><path d="M62.646 32.293c4.65 0 7.877-3.545 7.877-8.126 0-4.418-3.556-7.69-8.096-7.69h-3.309v15.816h3.528zm-6.155-18.27h6.839c5.087 0 9.984 4.336 9.984 10.281 0 5.918-4.732 10.444-10.641 10.444h-6.182v-20.725z"/></g></g></svg>